<?xml version="1.0" encoding="UTF-8" standalone="no"?>
<svg
   xmlns:dc="http://purl.org/dc/elements/1.1/"
   xmlns:cc="http://creativecommons.org/ns#"
   xmlns:rdf="http://www.w3.org/1999/02/22-rdf-syntax-ns#"
   xmlns:svg="http://www.w3.org/2000/svg"
   xmlns="http://www.w3.org/2000/svg"
   xmlns:sodipodi="http://sodipodi.sourceforge.net/DTD/sodipodi-0.dtd"
   xmlns:inkscape="http://www.inkscape.org/namespaces/inkscape"
   inkscape:version="1.0 (4035a4f, 2020-05-01)"
   sodipodi:docname="logo-kiro-synth.inkscape.svg"
   viewBox="0 0 156 56"
   height="56"
   width="156"
   xml:space="preserve"
   id="svg867"
   version="1.1"><metadata
     id="metadata873"><rdf:RDF><cc:Work
         rdf:about=""><dc:format>image/svg+xml</dc:format><dc:type
           rdf:resource="http://purl.org/dc/dcmitype/StillImage" /><dc:title></dc:title></cc:Work></rdf:RDF></metadata><defs
     id="defs871"><clipPath
       id="clipPath883"
       clipPathUnits="userSpaceOnUse"><path
         id="path881"
         clip-rule="evenodd"
         d="M 0,0 H 596 V 842.95715 H 0 Z" /></clipPath></defs><sodipodi:namedview
     showguides="false"
     inkscape:current-layer="g875"
     inkscape:window-maximized="1"
     inkscape:window-y="23"
     inkscape:window-x="0"
     inkscape:cy="24.886486"
     inkscape:cx="116.46235"
     inkscape:zoom="2.890625"
     showgrid="true"
     id="namedview869"
     inkscape:window-height="755"
     inkscape:window-width="1280"
     inkscape:pageshadow="2"
     inkscape:pageopacity="0"
     guidetolerance="10"
     gridtolerance="10"
     objecttolerance="10"
     borderopacity="1"
     bordercolor="#666666"
     pagecolor="#ffffff"><inkscape:grid
       originy="0"
       originx="0"
       dotted="false"
       snapvisiblegridlinesonly="false"
       id="grid911"
       type="xygrid" /></sodipodi:namedview><g
     transform="matrix(1.3333333,0,0,1.3333333,0,2.81e-5)"
     inkscape:label="Untitled document"
     inkscape:groupmode="layer"
     id="g875"><g
       style="font-size:36px;line-height:1.25;font-family:STIXSizeFiveSym;-inkscape-font-specification:STIXSizeFiveSym;stroke-width:0.75"
       id="text909"
       aria-label="Kiro Synth"><path
         id="path1183"
         style="font-style:normal;font-variant:normal;font-weight:500;font-stretch:condensed;font-size:36px;font-family:Futura;-inkscape-font-specification:'Futura Medium Condensed';stroke-width:0.75"
         d="m 1.6998381,4.6594391 h 3.65625 V 17.807877 L 10.453744,4.6594391 h 3.691407 L 8.8014006,17.807877 14.567026,31.800064 H 10.453744 L 5.3560881,17.807877 v 13.992187 h -3.65625 z" /><path
         id="path1185"
         style="font-style:normal;font-variant:normal;font-weight:500;font-stretch:condensed;font-size:36px;font-family:Futura;-inkscape-font-specification:'Futura Medium Condensed';stroke-width:0.75"
         d="m 16.693979,13.606705 h 3.375 v 18.193359 h -3.375 z M 18.27601,5.8723297 q 0.914062,0 1.582031,0.6679688 0.667969,0.6679687 0.667969,1.5996093 0,0.9492188 -0.667969,1.6171875 -0.667969,0.6679687 -1.617187,0.6679687 -0.949219,0 -1.617188,-0.6679687 -0.65039,-0.6503906 -0.65039,-1.6347656 0,-0.9140625 0.667968,-1.5820312 0.720703,-0.6679688 1.634766,-0.6679688 z" /><path
         id="path1187"
         style="font-style:normal;font-variant:normal;font-weight:500;font-stretch:condensed;font-size:36px;font-family:Futura;-inkscape-font-specification:'Futura Medium Condensed';stroke-width:0.75"
         d="m 23.865854,13.606705 h 3.357422 v 2.267578 q 0.861328,-1.441406 1.705078,-2.021485 0.84375,-0.580078 2.232422,-0.667968 v 3.515625 q -0.351563,-0.05274 -0.597657,-0.05274 -1.810547,0 -2.583984,0.931641 -0.755859,0.914062 -0.755859,3.199219 v 11.021484 h -3.357422 z" /><path
         id="path1189"
         style="font-style:normal;font-variant:normal;font-weight:500;font-stretch:condensed;font-size:36px;font-family:Futura;-inkscape-font-specification:'Futura Medium Condensed';stroke-width:0.75"
         d="m 44.379526,22.852798 q 0,9.228516 -5.712891,9.228516 -5.712891,0 -5.712891,-9.369141 0,-9.404296 5.695313,-9.404296 1.476562,0 2.548828,0.5625 1.089844,0.5625 1.792969,1.740234 0.703125,1.177734 1.037109,2.970703 0.351563,1.792969 0.351563,4.271484 z m -3.480469,-0.08789 q 0,-3.585938 -0.47461,-4.992188 -0.474609,-1.423828 -1.6875,-1.423828 -1.195312,0 -1.705078,1.40625 -0.474609,1.40625 -0.474609,4.904297 0,3.498047 0.474609,4.886719 0.509766,1.40625 1.705078,1.40625 1.195313,0 1.669922,-1.388672 0.492188,-1.300781 0.492188,-4.798828 z" /><path
         id="path1191"
         style="font-style:normal;font-variant:normal;font-weight:500;font-stretch:condensed;font-size:36px;font-family:Futura;-inkscape-font-specification:'Futura Medium Condensed';stroke-width:0.75"
         d="M 64.190072,5.2219391 V 8.7902985 Q 62.520151,7.594986 61.184213,7.594986 q -1.441406,0 -2.355469,1.0195312 -0.914062,0.9667969 -0.914062,2.5839848 0,1.423828 0.65039,2.443359 0.333985,0.544922 1.089844,1.40625 0.773438,0.861328 1.986328,2.074219 2.232422,2.267578 3.041016,3.919922 0.808594,1.599609 0.808594,3.919921 0,3.146485 -1.775391,5.185547 -1.775391,1.986328 -4.552734,1.986328 -2.337891,0 -3.990235,-1.283203 v -3.621093 q 1.951172,1.423828 3.550782,1.423828 1.49414,0 2.33789,-0.984375 0.84375,-1.001953 0.84375,-2.707032 0,-1.476562 -0.65039,-2.654296 -0.333985,-0.5625 -0.931641,-1.283204 -0.597656,-0.738281 -1.494141,-1.634765 -1.388672,-1.371094 -2.302734,-2.425781 -0.914063,-1.054688 -1.353516,-1.845704 -0.84375,-1.546875 -0.84375,-3.902343 0,-3.1816409 1.652344,-5.0449222 1.669922,-1.8808593 4.482422,-1.8808593 1.951172,0 3.726562,0.9316406 z" /><path
         id="path1193"
         style="font-style:normal;font-variant:normal;font-weight:500;font-stretch:condensed;font-size:36px;font-family:Futura;-inkscape-font-specification:'Futura Medium Condensed';stroke-width:0.75"
         d="m 66.615854,13.606705 h 3.796875 l 2.671875,12.691406 3.128906,-12.691406 h 3.410156 l -7.435547,25.646484 h -3.533203 l 2.794922,-8.912109 z" /><path
         id="path1195"
         style="font-style:normal;font-variant:normal;font-weight:500;font-stretch:condensed;font-size:36px;font-family:Futura;-inkscape-font-specification:'Futura Medium Condensed';stroke-width:0.75"
         d="m 81.662729,13.606705 h 3.357422 v 2.091797 q 1.441406,-2.390625 3.726562,-2.390625 2.214844,0 3.164063,1.740234 0.527343,0.984375 0.527343,3.814453 v 12.9375 h -3.357422 l -0.01758,-12.164062 q 0,-1.845704 -0.439453,-2.619141 -0.439453,-0.773438 -1.511719,-0.773438 -0.580078,0 -0.984375,0.210938 -0.386718,0.193359 -0.632812,0.650391 -0.246094,0.439453 -0.369141,1.160156 -0.105468,0.720703 -0.105468,1.77539 v 11.759766 h -3.357422 z" /><path
         id="path1197"
         style="font-style:normal;font-variant:normal;font-weight:500;font-stretch:condensed;font-size:36px;font-family:Futura;-inkscape-font-specification:'Futura Medium Condensed';stroke-width:0.75"
         d="m 96.621713,8.5090485 h 3.357422 v 5.0976565 h 1.828125 V 16.27858 H 99.979135 V 31.800064 H 96.621713 V 16.27858 H 94.77601 v -2.671875 h 1.845703 z" /><path
         id="path1199"
         style="font-style:normal;font-variant:normal;font-weight:500;font-stretch:condensed;font-size:36px;font-family:Futura;-inkscape-font-specification:'Futura Medium Condensed';stroke-width:0.75"
         d="m 104.23304,1.9348297 h 3.35742 V 15.698502 q 1.44141,-2.390625 3.72657,-2.390625 2.21484,0 3.16406,1.740234 0.52734,0.984375 0.52734,3.814453 v 12.9375 h -3.35742 l -0.0176,-12.164062 q 0,-1.845704 -0.43945,-2.619141 -0.43945,-0.773438 -1.51172,-0.773438 -0.58008,0 -0.98438,0.210938 -0.38671,0.193359 -0.63281,0.650391 -0.24609,0.439453 -0.36914,1.160156 -0.10547,0.720703 -0.10547,1.77539 v 11.759766 h -3.35742 z" /></g></g></svg>
