<?xml version="1.0" encoding="UTF-8"?>
<svg width="64" height="12" version="1.1" viewBox="0 0 64 12" xmlns="http://www.w3.org/2000/svg" xmlns:cc="http://creativecommons.org/ns#" xmlns:dc="http://purl.org/dc/elements/1.1/" xmlns:rdf="http://www.w3.org/1999/02/22-rdf-syntax-ns#">
 <metadata>
  <rdf:RDF>
   <cc:Work rdf:about="">
    <dc:format>image/svg+xml</dc:format>
    <dc:type rdf:resource="http://purl.org/dc/dcmitype/StillImage"/>
    <dc:title/>
   </cc:Work>
  </rdf:RDF>
 </metadata>
 <rect y="8" width="1" height="4"/>
 <rect x="12" y="8" width="1" height="4"/>
 <rect x="24" y="8" width="1" height="4"/>
 <rect x="36" y="8" width="1" height="4"/>
 <rect x="48" y="8" width="1" height="4"/>
 <rect x="60" y="8" width="1" height="4"/>
 <g transform="matrix(3.776 0 0 3.8236 .057382 -.18677)" stroke-width=".26458" aria-label="48">
  <path d="m3.7069 1.5875v-0.36277h-0.53847v-0.17053l0.56741-0.98185h0.12402v0.98185h0.16847v0.17053h-0.16847v0.36277zm0-0.5333v-0.68316l-0.38861 0.68316z"/>
  <path d="m4.4201 0.76584q-0.091984-0.041341-0.13953-0.11782-0.046509-0.077515-0.046509-0.19224 0-0.1726 0.10129-0.28112 0.10232-0.10852 0.25632-0.10852 0.15503 0 0.25735 0.11059 0.10335 0.11059 0.10335 0.28525 0 0.10955-0.045475 0.18604-0.045475 0.075448-0.13746 0.11782 0.11265 0.044442 0.1726 0.14366 0.060978 0.099219 0.060978 0.24598 0 0.20257-0.11782 0.33073-0.11679 0.12712-0.29042 0.12712-0.1757 0-0.29352-0.12712-0.11679-0.12816-0.11679-0.3359 0-0.15193 0.062012-0.25011 0.063045-0.099219 0.17363-0.13436zm-0.028939-0.31523q0 0.11162 0.058911 0.17777 0.058911 0.066146 0.14469 0.066146 0.083716 0 0.14263-0.065112 0.058911-0.065112 0.058911-0.16847 0-0.10645-0.060978-0.17363-0.059945-0.068213-0.14263-0.068213-0.082682 0-0.14263 0.066146-0.058911 0.066146-0.058911 0.16536zm-0.050643 0.6997q0 0.13953 0.074414 0.22531 0.075448 0.08475 0.17983 0.08475 0.10542 0 0.1788-0.082682 0.073381-0.082682 0.073381-0.22118 0-0.13953-0.075448-0.22428-0.075448-0.085783-0.18087-0.085783-0.10439 0-0.17777 0.08475-0.072347 0.08475-0.072347 0.21911z"/>
 </g>
 <g transform="matrix(3.776 0 0 3.8236 .057382 -.18677)" stroke-width=".26458" aria-label="36">
  <path d="m6.3266 1.1875 0.15296-0.024805q0.047542 0.29766 0.24081 0.29766 0.10439 0 0.18087-0.08785 0.076481-0.088884 0.076481-0.22944 0-0.13229-0.07028-0.21291-0.07028-0.080615-0.1726-0.080615-0.043408 0-0.10749 0.020671l0.01757-0.1633 0.023771 0.002067q0.11265 0 0.18293-0.069246 0.07028-0.069246 0.07028-0.185 0-0.10645-0.058911-0.17053-0.058911-0.065112-0.14366-0.065112-0.08785 0-0.14883 0.068213-0.059945 0.06718-0.076481 0.20464l-0.15193-0.033073q0.028939-0.1943 0.13022-0.29352 0.10129-0.099219 0.24495-0.099219 0.1509 0 0.25632 0.11162 0.10542 0.11162 0.10542 0.28112 0 0.10335-0.045475 0.18293-0.044442 0.079582-0.12506 0.12506 0.074414 0.020671 0.12299 0.068213 0.048576 0.047542 0.078548 0.12712 0.029972 0.079582 0.029972 0.17777 0 0.20877-0.12299 0.3421-0.12299 0.13229-0.29456 0.13229-0.15916 0-0.26975-0.11576-0.11059-0.11576-0.12609-0.31109z"/>
  <path d="m8.0846 0.44338-0.15193 0.014469q-0.021704-0.11679-0.064079-0.1664-0.060978-0.072347-0.14676-0.072347-0.13333 0-0.21394 0.16536-0.069247 0.14263-0.07028 0.42168 0.05271-0.099219 0.13229-0.14986 0.079582-0.051676 0.16847-0.051676 0.14779 0 0.25735 0.13436 0.11059 0.13333 0.11059 0.3576 0 0.15193-0.055811 0.27595-0.054777 0.12299-0.14159 0.1819-0.086816 0.058911-0.1912 0.058911-0.1881 0-0.31006-0.1695-0.12196-0.1695-0.12196-0.56534 0-0.43925 0.12506-0.62529 0.12506-0.18707 0.32039-0.18707 0.14159 0 0.23668 0.097152 0.096118 0.096118 0.11679 0.28009zm-0.62322 0.65319q0 0.16433 0.077515 0.26458 0.077515 0.099219 0.17983 0.099219 0.089917 0 0.1602-0.094051 0.071314-0.094051 0.071314-0.25838 0-0.16123-0.07028-0.25011t-0.17157-0.088884q-0.099219 0-0.17363 0.088884-0.073381 0.08785-0.073381 0.23875z"/>
 </g>
 <g transform="matrix(3.776 0 0 3.8236 .057382 -.18677)" stroke-width=".26458" aria-label="24">
  <path d="m10.33 1.4087v0.1788h-0.82166q-0.0031-0.10852 0.065112-0.24288 0.069247-0.13436 0.25218-0.31729 0.21394-0.21291 0.28009-0.32866 0.06615-0.11679 0.06615-0.21704 0-0.11576-0.06821-0.1881-0.06718-0.073381-0.1664-0.073381-0.10645 0-0.17467 0.078548t-0.068213 0.22531l-0.1571-0.019637q0.016536-0.21807 0.12299-0.32763 0.10749-0.11059 0.28215-0.11059 0.19017 0 0.28732 0.12816 0.09819 0.12816 0.09819 0.29146 0 0.14469-0.07648 0.27802-0.07648 0.13229-0.29042 0.35347-0.13643 0.13953-0.17673 0.19017-0.039274 0.050643-0.064079 0.10129z"/>
  <path d="m10.982 1.5875v-0.36277h-0.53847v-0.17053l0.56741-0.98185h0.12402v0.98185h0.16846v0.17053h-0.16846v0.36277zm0-0.5333v-0.68316l-0.38861 0.68316z"/>
 </g>
 <g transform="matrix(3.776 0 0 3.8236 .057382 -.18677)" stroke-width=".26458" aria-label="60">
  <path d="m0.77825 0.44338-0.15193 0.014469q-0.021704-0.11679-0.064079-0.1664-0.060978-0.072347-0.14676-0.072347-0.13333 0-0.21394 0.16536-0.069246 0.14263-0.07028 0.42168 0.05271-0.099219 0.13229-0.14986 0.079582-0.051676 0.16847-0.051676 0.14779 0 0.25735 0.13436 0.11059 0.13333 0.11059 0.3576 0 0.15193-0.055811 0.27595-0.054777 0.12299-0.14159 0.1819-0.086816 0.058911-0.1912 0.058911-0.1881 0-0.31006-0.1695-0.12196-0.1695-0.12196-0.56534 0-0.43925 0.12506-0.62529 0.12506-0.18707 0.32039-0.18707 0.14159 0 0.23668 0.097152 0.096118 0.096118 0.11679 0.28009zm-0.62322 0.65319q0 0.16433 0.077515 0.26458 0.077515 0.099219 0.17983 0.099219 0.089917 0 0.1602-0.094051 0.071314-0.094051 0.071314-0.25838 0-0.16123-0.07028-0.25011t-0.17157-0.088884q-0.099219 0-0.17363 0.088884-0.073381 0.08785-0.073381 0.23875z"/>
  <path d="m0.95395 0.84026q0-0.38137 0.10232-0.57774 0.10335-0.19637 0.30386-0.19637 0.17777 0 0.28009 0.15916 0.12402 0.19224 0.12402 0.61495 0 0.37931-0.10232 0.57671-0.10232 0.19637-0.30386 0.19637-0.17777 0-0.29146-0.17363-0.11265-0.17363-0.11265-0.59945zm0.15606 0q0 0.36897 0.07028 0.49506 0.071314 0.12506 0.1819 0.12506 0.10439 0 0.17467-0.12712 0.07028-0.12712 0.07028-0.49299 0-0.37-0.071314-0.49506-0.07028-0.12506-0.18293-0.12506-0.10335 0-0.17363 0.12712-0.069246 0.12712-0.069246 0.49299z"/>
 </g>
 <g transform="matrix(3.776 0 0 3.8236 .057382 -.18677)" stroke-width=".26458" aria-label="12">
  <path d="m13.158 1.5875h-0.15296v-1.1855q-0.05271 0.062012-0.14159 0.12712-0.08888 0.064079-0.1633 0.097152v-0.17983q0.12609-0.072347 0.22221-0.17673 0.09715-0.10439 0.13643-0.20361h0.09922z"/>
  <path d="m14.355 1.4087v0.1788h-0.82166q-0.0031-0.10852 0.06511-0.24288 0.06925-0.13436 0.25218-0.31729 0.21394-0.21291 0.28009-0.32866 0.06615-0.11679 0.06615-0.21704 0-0.11576-0.06821-0.1881-0.06718-0.073381-0.1664-0.073381-0.10645 0-0.17467 0.078548-0.06821 0.078548-0.06821 0.22531l-0.1571-0.019637q0.01654-0.21807 0.12299-0.32763 0.10749-0.11059 0.28215-0.11059 0.19017 0 0.28732 0.12816 0.09819 0.12816 0.09819 0.29146 0 0.14469-0.07648 0.27802-0.07648 0.13229-0.29042 0.35347-0.13643 0.13953-0.17673 0.19017-0.03927 0.050643-0.06408 0.10129z"/>
 </g>
 <g transform="matrix(3.776 0 0 3.8236 .057382 -.18677)" stroke-width=".26458" aria-label="0">
  <path d="m15.875 0.84026q0-0.38137 0.10232-0.57774 0.10335-0.19637 0.30386-0.19637 0.17777 0 0.28009 0.15916 0.12402 0.19224 0.12402 0.61495 0 0.37931-0.10232 0.57671-0.10232 0.19637-0.30386 0.19637-0.17777 0-0.29146-0.17363-0.11266-0.17363-0.11266-0.59945zm0.15606 0q0 0.36897 0.07028 0.49506 0.07131 0.12506 0.1819 0.12506 0.10439 0 0.17467-0.12712 0.07028-0.12712 0.07028-0.49299 0-0.37-0.07131-0.49506-0.07028-0.12506-0.18294-0.12506-0.10335 0-0.17363 0.12712-0.06925 0.12712-0.06925 0.49299z" stroke-width=".26458"/>
 </g>
 <rect x="6" y="10" width="1" height="2"/>
 <rect x="18" y="10" width="1" height="2"/>
 <rect x="30" y="10" width="1" height="2"/>
 <rect x="42" y="10" width="1" height="2"/>
 <rect x="54" y="10" width="1" height="2"/>
</svg>
