<?xml version="1.0" encoding="UTF-8"?>
<svg width="156" height="56" version="1.1" viewBox="0 0 156 56" xml:space="preserve" xmlns="http://www.w3.org/2000/svg"
     xmlns:cc="http://creativecommons.org/ns#" xmlns:dc="http://purl.org/dc/elements/1.1/"
     xmlns:rdf="http://www.w3.org/1999/02/22-rdf-syntax-ns#">
    <g transform="matrix(1.3333 0 0 1.3333 0 2.81e-5)">
        <g stroke-width=".75" aria-label="Kiro Synth">
            <path d="m1.6998 4.6594h3.6562v13.148l5.0977-13.148h3.6914l-5.3438 13.148 5.7656 13.992h-4.1133l-5.0977-13.992v13.992h-3.6562z"/>
            <path d="m16.694 13.607h3.375v18.193h-3.375zm1.582-7.7344q0.91406 0 1.582 0.66797 0.66797 0.66797 0.66797 1.5996 0 0.94922-0.66797 1.6172t-1.6172 0.66797q-0.94922 0-1.6172-0.66797-0.65039-0.65039-0.65039-1.6348 0-0.91406 0.66797-1.582 0.7207-0.66797 1.6348-0.66797z"/>
            <path d="m23.866 13.607h3.3574v2.2676q0.86133-1.4414 1.7051-2.0215 0.84375-0.58008 2.2324-0.66797v3.5156q-0.35156-0.05274-0.59766-0.05274-1.8105 0-2.584 0.93164-0.75586 0.91406-0.75586 3.1992v11.021h-3.3574z"/>
            <path d="m44.38 22.853q0 9.2285-5.7129 9.2285t-5.7129-9.3691q0-9.4043 5.6953-9.4043 1.4766 0 2.5488 0.5625 1.0898 0.5625 1.793 1.7402t1.0371 2.9707q0.35156 1.793 0.35156 4.2715zm-3.4805-0.08789q0-3.5859-0.47461-4.9922-0.47461-1.4238-1.6875-1.4238-1.1953 0-1.7051 1.4062-0.47461 1.4062-0.47461 4.9043t0.47461 4.8867q0.50977 1.4062 1.7051 1.4062 1.1953 0 1.6699-1.3887 0.49219-1.3008 0.49219-4.7988z"/>
            <path d="m64.19 5.2219v3.5684q-1.6699-1.1953-3.0059-1.1953-1.4414 0-2.3555 1.0195-0.91406 0.9668-0.91406 2.584 0 1.4238 0.65039 2.4434 0.33398 0.54492 1.0898 1.4062 0.77344 0.86133 1.9863 2.0742 2.2324 2.2676 3.041 3.9199 0.80859 1.5996 0.80859 3.9199 0 3.1465-1.7754 5.1855-1.7754 1.9863-4.5527 1.9863-2.3379 0-3.9902-1.2832v-3.6211q1.9512 1.4238 3.5508 1.4238 1.4941 0 2.3379-0.98438 0.84375-1.002 0.84375-2.707 0-1.4766-0.65039-2.6543-0.33398-0.5625-0.93164-1.2832-0.59766-0.73828-1.4941-1.6348-1.3887-1.3711-2.3027-2.4258-0.91406-1.0547-1.3535-1.8457-0.84375-1.5469-0.84375-3.9023 0-3.1816 1.6523-5.0449 1.6699-1.8809 4.4824-1.8809 1.9512 0 3.7266 0.93164z"/>
            <path d="m66.616 13.607h3.7969l2.6719 12.691 3.1289-12.691h3.4102l-7.4355 25.646h-3.5332l2.7949-8.9121z"/>
            <path d="m81.663 13.607h3.3574v2.0918q1.4414-2.3906 3.7266-2.3906 2.2148 0 3.1641 1.7402 0.52734 0.98438 0.52734 3.8145v12.938h-3.3574l-0.01758-12.164q0-1.8457-0.43945-2.6191-0.43945-0.77344-1.5117-0.77344-0.58008 0-0.98438 0.21094-0.38672 0.19336-0.63281 0.65039-0.24609 0.43945-0.36914 1.1602-0.10547 0.7207-0.10547 1.7754v11.76h-3.3574z"/>
            <path d="m96.622 8.509h3.3574v5.0977h1.8281v2.6719h-1.8281v15.521h-3.3574v-15.521h-1.8457v-2.6719h1.8457z"/>
            <path d="m104.23 1.9348h3.3574v13.764q1.4414-2.3906 3.7266-2.3906 2.2148 0 3.1641 1.7402 0.52734 0.98438 0.52734 3.8145v12.938h-3.3574l-0.0176-12.164q0-1.8457-0.43945-2.6191-0.43945-0.77344-1.5117-0.77344-0.58008 0-0.98438 0.21094-0.38671 0.19336-0.63281 0.65039-0.24609 0.43945-0.36914 1.1602-0.10547 0.7207-0.10547 1.7754v11.76h-3.3574z"/>
        </g>
    </g>
</svg>
